  0
SECTION
  2
BLOCKS
  0
ENDSEC
  0
SECTION
  2
ENTITIES
  0
LINE
  8
0
 10
533.4
 20
254
 11
508
 21
254
  0
LINE
  8
0
 10
508
 20
254
 11
498.475
 21
244.475
  0
LINE
  8
0
 10
498.475
 20
244.475
 11
498.475
 21
127
  0
LINE
  8
0
 10
498.475
 20
127
 11
498.32
 21
126.019
  0
LINE
  8
0
 10
498.32
 20
126.019
 11
497.869
 21
125.134
  0
LINE
  8
0
 10
497.869
 20
125.134
 11
497.166
 21
124.431
  0
LINE
  8
0
 10
497.166
 20
124.431
 11
496.281
 21
123.98
  0
LINE
  8
0
 10
496.281
 20
123.98
 11
495.3
 21
123.825
  0
LINE
  8
0
 10
495.3
 20
123.825
 11
494.319
 21
123.98
  0
LINE
  8
0
 10
494.319
 20
123.98
 11
493.434
 21
124.431
  0
LINE
  8
0
 10
493.434
 20
124.431
 11
492.731
 21
125.134
  0
LINE
  8
0
 10
492.731
 20
125.134
 11
492.28
 21
126.019
  0
LINE
  8
0
 10
492.28
 20
126.019
 11
492.125
 21
127
  0
LINE
  8
0
 10
492.125
 20
127
 11
492.125
 21
244.475
  0
LINE
  8
0
 10
492.125
 20
244.475
 11
482.6
 21
254
  0
LINE
  8
0
 10
482.6
 20
254
 11
279.4
 21
254
  0
LINE
  8
0
 10
279.4
 20
254
 11
269.875
 21
244.475
  0
LINE
  8
0
 10
269.875
 20
244.475
 11
269.875
 21
127
  0
LINE
  8
0
 10
269.875
 20
127
 11
269.72
 21
126.019
  0
LINE
  8
0
 10
269.72
 20
126.019
 11
269.269
 21
125.134
  0
LINE
  8
0
 10
269.269
 20
125.134
 11
268.566
 21
124.431
  0
LINE
  8
0
 10
268.566
 20
124.431
 11
267.681
 21
123.98
  0
LINE
  8
0
 10
267.681
 20
123.98
 11
266.7
 21
123.825
  0
LINE
  8
0
 10
266.7
 20
123.825
 11
265.719
 21
123.98
  0
LINE
  8
0
 10
265.719
 20
123.98
 11
264.834
 21
124.431
  0
LINE
  8
0
 10
264.834
 20
124.431
 11
264.131
 21
125.134
  0
LINE
  8
0
 10
264.131
 20
125.134
 11
263.68
 21
126.019
  0
LINE
  8
0
 10
263.68
 20
126.019
 11
263.525
 21
127
  0
LINE
  8
0
 10
263.525
 20
127
 11
263.525
 21
244.475
  0
LINE
  8
0
 10
263.525
 20
244.475
 11
254
 21
254
  0
LINE
  8
0
 10
254
 20
254
 11
50.8
 21
254
  0
LINE
  8
0
 10
50.8
 20
254
 11
41.275
 21
244.475
  0
LINE
  8
0
 10
41.275
 20
244.475
 11
41.275
 21
127
  0
LINE
  8
0
 10
41.275
 20
127
 11
41.1196
 21
126.019
  0
LINE
  8
0
 10
41.1196
 20
126.019
 11
40.6686
 21
125.134
  0
LINE
  8
0
 10
40.6686
 20
125.134
 11
39.9662
 21
124.431
  0
LINE
  8
0
 10
39.9662
 20
124.431
 11
39.0811
 21
123.98
  0
LINE
  8
0
 10
39.0811
 20
123.98
 11
38.1
 21
123.825
  0
LINE
  8
0
 10
38.1
 20
123.825
 11
37.1189
 21
123.98
  0
LINE
  8
0
 10
37.1189
 20
123.98
 11
36.2338
 21
124.431
  0
LINE
  8
0
 10
36.2338
 20
124.431
 11
35.5314
 21
125.134
  0
LINE
  8
0
 10
35.5314
 20
125.134
 11
35.0804
 21
126.019
  0
LINE
  8
0
 10
35.0804
 20
126.019
 11
34.925
 21
127
  0
LINE
  8
0
 10
34.925
 20
127
 11
34.925
 21
244.475
  0
LINE
  8
0
 10
34.925
 20
244.475
 11
25.4
 21
254
  0
LINE
  8
0
 10
25.4
 20
254
 11
0
 21
254
  0
LINE
  8
0
 10
0
 20
254
 11
0
 21
0
  0
LINE
  8
0
 10
0
 20
0
 11
533.4
 21
0
  0
LINE
  8
0
 10
533.4
 20
0
 11
533.4
 21
254
  0
LINE
  8
0
 10
114.3
 20
203.2
 11
110.375
 21
203.822
  0
LINE
  8
0
 10
110.375
 20
203.822
 11
106.835
 21
205.625
  0
LINE
  8
0
 10
106.835
 20
205.625
 11
104.025
 21
208.435
  0
LINE
  8
0
 10
104.025
 20
208.435
 11
102.222
 21
211.975
  0
LINE
  8
0
 10
102.222
 20
211.975
 11
101.6
 21
215.9
  0
LINE
  8
0
 10
101.6
 20
215.9
 11
101.6
 21
254
  0
LINE
  8
0
 10
101.6
 20
254
 11
203.2
 21
254
  0
LINE
  8
0
 10
203.2
 20
254
 11
203.2
 21
215.9
  0
LINE
  8
0
 10
203.2
 20
215.9
 11
202.578
 21
211.975
  0
LINE
  8
0
 10
202.578
 20
211.975
 11
200.775
 21
208.435
  0
LINE
  8
0
 10
200.775
 20
208.435
 11
197.965
 21
205.625
  0
LINE
  8
0
 10
197.965
 20
205.625
 11
194.424
 21
203.822
  0
LINE
  8
0
 10
194.424
 20
203.822
 11
190.5
 21
203.2
  0
LINE
  8
0
 10
190.5
 20
203.2
 11
114.3
 21
203.2
  0
LINE
  8
0
 10
342.9
 20
203.2
 11
338.975
 21
203.822
  0
LINE
  8
0
 10
338.975
 20
203.822
 11
335.435
 21
205.625
  0
LINE
  8
0
 10
335.435
 20
205.625
 11
332.625
 21
208.435
  0
LINE
  8
0
 10
332.625
 20
208.435
 11
330.822
 21
211.975
  0
LINE
  8
0
 10
330.822
 20
211.975
 11
330.2
 21
215.9
  0
LINE
  8
0
 10
330.2
 20
215.9
 11
330.2
 21
254
  0
LINE
  8
0
 10
330.2
 20
254
 11
431.8
 21
254
  0
LINE
  8
0
 10
431.8
 20
254
 11
431.8
 21
215.9
  0
LINE
  8
0
 10
431.8
 20
215.9
 11
431.178
 21
211.975
  0
LINE
  8
0
 10
431.178
 20
211.975
 11
429.375
 21
208.435
  0
LINE
  8
0
 10
429.375
 20
208.435
 11
426.565
 21
205.625
  0
LINE
  8
0
 10
426.565
 20
205.625
 11
423.025
 21
203.822
  0
LINE
  8
0
 10
423.025
 20
203.822
 11
419.1
 21
203.2
  0
LINE
  8
0
 10
419.1
 20
203.2
 11
342.9
 21
203.2
  0
ENDSEC
  0
SECTION
  2
OBJECTS
  0
DICTIONARY
  0
ENDSEC
  0
EOF
