  0
SECTION
  2
BLOCKS
  0
ENDSEC
  0
SECTION
  2
ENTITIES
  0
LINE
  8
0
 10
431.8
 20
254
 11
396.51
 21
254
  0
LINE
  8
0
 10
396.51
 20
254
 11
386.985
 21
244.475
  0
LINE
  8
0
 10
386.985
 20
244.475
 11
386.985
 21
127
  0
LINE
  8
0
 10
386.985
 20
127
 11
386.83
 21
126.019
  0
LINE
  8
0
 10
386.83
 20
126.019
 11
386.379
 21
125.134
  0
LINE
  8
0
 10
386.379
 20
125.134
 11
385.676
 21
124.431
  0
LINE
  8
0
 10
385.676
 20
124.431
 11
384.791
 21
123.98
  0
LINE
  8
0
 10
384.791
 20
123.98
 11
383.81
 21
123.825
  0
LINE
  8
0
 10
383.81
 20
123.825
 11
382.829
 21
123.98
  0
LINE
  8
0
 10
382.829
 20
123.98
 11
381.944
 21
124.431
  0
LINE
  8
0
 10
381.944
 20
124.431
 11
381.241
 21
125.134
  0
LINE
  8
0
 10
381.241
 20
125.134
 11
380.79
 21
126.019
  0
LINE
  8
0
 10
380.79
 20
126.019
 11
380.635
 21
127
  0
LINE
  8
0
 10
380.635
 20
127
 11
380.635
 21
244.475
  0
LINE
  8
0
 10
380.635
 20
244.475
 11
371.11
 21
254
  0
LINE
  8
0
 10
371.11
 20
254
 11
330.47
 21
254
  0
LINE
  8
0
 10
330.47
 20
254
 11
320.945
 21
244.475
  0
LINE
  8
0
 10
320.945
 20
244.475
 11
320.945
 21
127
  0
LINE
  8
0
 10
320.945
 20
127
 11
320.79
 21
126.019
  0
LINE
  8
0
 10
320.79
 20
126.019
 11
320.339
 21
125.134
  0
LINE
  8
0
 10
320.339
 20
125.134
 11
319.636
 21
124.431
  0
LINE
  8
0
 10
319.636
 20
124.431
 11
318.751
 21
123.98
  0
LINE
  8
0
 10
318.751
 20
123.98
 11
317.77
 21
123.825
  0
LINE
  8
0
 10
317.77
 20
123.825
 11
316.789
 21
123.98
  0
LINE
  8
0
 10
316.789
 20
123.98
 11
315.904
 21
124.431
  0
LINE
  8
0
 10
315.904
 20
124.431
 11
315.201
 21
125.134
  0
LINE
  8
0
 10
315.201
 20
125.134
 11
314.75
 21
126.019
  0
LINE
  8
0
 10
314.75
 20
126.019
 11
314.595
 21
127
  0
LINE
  8
0
 10
314.595
 20
127
 11
314.595
 21
244.475
  0
LINE
  8
0
 10
314.595
 20
244.475
 11
305.07
 21
254
  0
LINE
  8
0
 10
305.07
 20
254
 11
264.43
 21
254
  0
LINE
  8
0
 10
264.43
 20
254
 11
254.905
 21
244.475
  0
LINE
  8
0
 10
254.905
 20
244.475
 11
254.905
 21
127
  0
LINE
  8
0
 10
254.905
 20
127
 11
254.75
 21
126.019
  0
LINE
  8
0
 10
254.75
 20
126.019
 11
254.299
 21
125.134
  0
LINE
  8
0
 10
254.299
 20
125.134
 11
253.596
 21
124.431
  0
LINE
  8
0
 10
253.596
 20
124.431
 11
252.711
 21
123.98
  0
LINE
  8
0
 10
252.711
 20
123.98
 11
251.73
 21
123.825
  0
LINE
  8
0
 10
251.73
 20
123.825
 11
250.749
 21
123.98
  0
LINE
  8
0
 10
250.749
 20
123.98
 11
249.864
 21
124.431
  0
LINE
  8
0
 10
249.864
 20
124.431
 11
249.161
 21
125.134
  0
LINE
  8
0
 10
249.161
 20
125.134
 11
248.71
 21
126.019
  0
LINE
  8
0
 10
248.71
 20
126.019
 11
248.555
 21
127
  0
LINE
  8
0
 10
248.555
 20
127
 11
248.555
 21
244.475
  0
LINE
  8
0
 10
248.555
 20
244.475
 11
239.03
 21
254
  0
LINE
  8
0
 10
239.03
 20
254
 11
198.39
 21
254
  0
LINE
  8
0
 10
198.39
 20
254
 11
188.865
 21
244.475
  0
LINE
  8
0
 10
188.865
 20
244.475
 11
188.865
 21
127
  0
LINE
  8
0
 10
188.865
 20
127
 11
188.71
 21
126.019
  0
LINE
  8
0
 10
188.71
 20
126.019
 11
188.259
 21
125.134
  0
LINE
  8
0
 10
188.259
 20
125.134
 11
187.556
 21
124.431
  0
LINE
  8
0
 10
187.556
 20
124.431
 11
186.671
 21
123.98
  0
LINE
  8
0
 10
186.671
 20
123.98
 11
185.69
 21
123.825
  0
LINE
  8
0
 10
185.69
 20
123.825
 11
184.709
 21
123.98
  0
LINE
  8
0
 10
184.709
 20
123.98
 11
183.824
 21
124.431
  0
LINE
  8
0
 10
183.824
 20
124.431
 11
183.121
 21
125.134
  0
LINE
  8
0
 10
183.121
 20
125.134
 11
182.67
 21
126.019
  0
LINE
  8
0
 10
182.67
 20
126.019
 11
182.515
 21
127
  0
LINE
  8
0
 10
182.515
 20
127
 11
182.515
 21
244.475
  0
LINE
  8
0
 10
182.515
 20
244.475
 11
172.99
 21
254
  0
LINE
  8
0
 10
172.99
 20
254
 11
132.35
 21
254
  0
LINE
  8
0
 10
132.35
 20
254
 11
122.825
 21
244.475
  0
LINE
  8
0
 10
122.825
 20
244.475
 11
122.825
 21
127
  0
LINE
  8
0
 10
122.825
 20
127
 11
122.67
 21
126.019
  0
LINE
  8
0
 10
122.67
 20
126.019
 11
122.219
 21
125.134
  0
LINE
  8
0
 10
122.219
 20
125.134
 11
121.516
 21
124.431
  0
LINE
  8
0
 10
121.516
 20
124.431
 11
120.631
 21
123.98
  0
LINE
  8
0
 10
120.631
 20
123.98
 11
119.65
 21
123.825
  0
LINE
  8
0
 10
119.65
 20
123.825
 11
118.669
 21
123.98
  0
LINE
  8
0
 10
118.669
 20
123.98
 11
117.784
 21
124.431
  0
LINE
  8
0
 10
117.784
 20
124.431
 11
117.081
 21
125.134
  0
LINE
  8
0
 10
117.081
 20
125.134
 11
116.63
 21
126.019
  0
LINE
  8
0
 10
116.63
 20
126.019
 11
116.475
 21
127
  0
LINE
  8
0
 10
116.475
 20
127
 11
116.475
 21
244.475
  0
LINE
  8
0
 10
116.475
 20
244.475
 11
106.95
 21
254
  0
LINE
  8
0
 10
106.95
 20
254
 11
66.31
 21
254
  0
LINE
  8
0
 10
66.31
 20
254
 11
56.785
 21
244.475
  0
LINE
  8
0
 10
56.785
 20
244.475
 11
56.785
 21
127
  0
LINE
  8
0
 10
56.785
 20
127
 11
56.6296
 21
126.019
  0
LINE
  8
0
 10
56.6296
 20
126.019
 11
56.1786
 21
125.134
  0
LINE
  8
0
 10
56.1786
 20
125.134
 11
55.4762
 21
124.431
  0
LINE
  8
0
 10
55.4762
 20
124.431
 11
54.5911
 21
123.98
  0
LINE
  8
0
 10
54.5911
 20
123.98
 11
53.61
 21
123.825
  0
LINE
  8
0
 10
53.61
 20
123.825
 11
52.6289
 21
123.98
  0
LINE
  8
0
 10
52.6289
 20
123.98
 11
51.7438
 21
124.431
  0
LINE
  8
0
 10
51.7438
 20
124.431
 11
51.0414
 21
125.134
  0
LINE
  8
0
 10
51.0414
 20
125.134
 11
50.5904
 21
126.019
  0
LINE
  8
0
 10
50.5904
 20
126.019
 11
50.435
 21
127
  0
LINE
  8
0
 10
50.435
 20
127
 11
50.435
 21
244.475
  0
LINE
  8
0
 10
50.435
 20
244.475
 11
40.91
 21
254
  0
LINE
  8
0
 10
40.91
 20
254
 11
0
 21
254
  0
LINE
  8
0
 10
0
 20
254
 11
0
 21
0
  0
LINE
  8
0
 10
0
 20
0
 11
431.8
 21
0
  0
LINE
  8
0
 10
431.8
 20
0
 11
431.8
 21
254
  0
ENDSEC
  0
SECTION
  2
OBJECTS
  0
DICTIONARY
  0
ENDSEC
  0
EOF
